<svg version="1.1" id="Layer_1" xmlns="http://www.w3.org/2000/svg" x="0" y="0" viewBox="0 0 1006 1010" style="enable-background:new 0 0 1006 1010" xml:space="preserve"><path d="m602.58 504 362.04-362.04c26.95-26.95 26.95-70.63 0-97.58-26.95-26.95-70.63-26.95-97.58 0L505 406.42 142.96 44.38c-26.95-26.95-70.63-26.95-97.58 0-26.95 26.95-26.95 70.63 0 97.58L407.42 504 45.38 866.04c-26.95 26.95-26.95 70.63 0 97.58 26.95 26.95 70.63 26.95 97.58 0L505 601.58l362.04 362.04c26.95 26.95 70.63 26.95 97.58 0 26.95-26.95 26.95-70.63 0-97.58L602.58 504z" style="fill:#30353f"/></svg>