<svg version="1.1" id="Layer_1" xmlns="http://www.w3.org/2000/svg" x="0" y="0" viewBox="0 0 80 78" style="enable-background:new 0 0 80 78" xml:space="preserve"><path d="M75.24 6 64.96 67.71c-.12.76-.6 1.41-1.29 1.81-.36.2-.8.32-1.25.32-.32 0-.64-.08-.96-.2l-18.2-7.43-9.72 11.85c-.48.6-1.21.92-1.97.92-.28 0-.6-.04-.88-.16-1-.36-1.69-1.33-1.69-2.41V58.39l34.71-42.55L20.76 53 4.89 46.49c-.92-.36-1.53-1.21-1.61-2.21-.04-.96.44-1.89 1.29-2.37L71.43 3.34c.4-.24.84-.36 1.29-.36.52 0 1.04.16 1.45.44.83.61 1.23 1.57 1.07 2.58z" style="fill:#30353f"/></svg>