<svg version="1.1" id="Layer_1" xmlns="http://www.w3.org/2000/svg" x="0" y="0" viewBox="0 0 1006 1010" style="enable-background:new 0 0 1006 1010" xml:space="preserve"><path d="M978.26 879.68 740.01 641.43c109.84-156.08 94.98-373.13-44.59-512.7-156.21-156.21-409.48-156.21-565.69 0-156.21 156.21-156.21 409.48 0 565.69 139.57 139.57 356.62 154.43 512.7 44.59l238.25 238.25c26.83 26.83 70.75 26.83 97.58 0 26.84-26.83 26.84-70.74 0-97.58zM200.45 623.71c-117.16-117.16-117.16-307.11 0-424.26 117.16-117.16 307.11-117.16 424.26 0s117.16 307.11 0 424.26c-117.16 117.16-307.11 117.16-424.26 0z" style="fill:#30353f"/></svg>