<?xml version="1.0" encoding="UTF-8"?><svg id="Layer_2" xmlns="http://www.w3.org/2000/svg" viewBox="0 0 50.31 69.06"><defs><style>.cls-1{fill:#24e4eb;}</style></defs><g id="Layer_1-2"><polygon class="cls-1" points="6.53 17.51 2.81 13.79 2.81 19.06 6.53 22.78 6.53 17.51"/><path class="cls-1" d="m50.31,37.99c0,2.3-.91,4.45-2.55,6.06l-21.32,21.31v-5.26l18.7-18.7c.93-.91,1.45-2.12,1.45-3.42s-.51-2.51-1.43-3.41L15.12,4.55c-.51-.51-1.25-.8-2.02-.8s-1.5.29-2.01.8c-.54.54-.84,1.26-.84,2.02s.3,1.48.84,2.02l23.35,23.37c1.62,1.6,2.51,3.74,2.51,6.03s-.89,4.43-2.52,6.03l-23.08,23.1c-1.25,1.25-2.92,1.94-4.7,1.94s-3.45-.69-4.7-1.94c-1.26-1.26-1.95-2.92-1.95-4.7s.69-3.44,1.95-4.7l17.32-17.29c.66-.66,1.03-1.53,1.03-2.45s-.36-1.79-1.02-2.45l-9.03-9.03v-5.27l11.65,11.66c1.36,1.36,2.11,3.16,2.11,5.08s-.76,3.73-2.13,5.09L4.58,60.36c-.55.55-.86,1.28-.86,2.07s.31,1.52.86,2.07c.55.55,1.29.86,2.07.86s1.52-.3,2.07-.86l23.09-23.11c.92-.9,1.43-2.11,1.43-3.39s-.5-2.49-1.42-3.4L8.46,11.22c-1.24-1.25-1.93-2.9-1.93-4.65s.69-3.4,1.93-4.65c1.24-1.24,2.89-1.92,4.65-1.92s3.41.68,4.65,1.92l30.02,30.01c1.63,1.6,2.53,3.75,2.53,6.05Z"/></g></svg>