<?xml version="1.0" encoding="UTF-8"?><svg id="Layer_2" xmlns="http://www.w3.org/2000/svg" viewBox="0 0 54.74 62.54"><defs><style>.cls-1,.cls-2{stroke:#0b2437;}.cls-1,.cls-2,.cls-3{fill:none;stroke-linecap:round;}.cls-1,.cls-3{stroke-linejoin:round;}.cls-2{stroke-miterlimit:10;}.cls-3{stroke:#6de0e8;stroke-width:2px;}</style></defs><g id="Blue_Icons_-_Dark"><path class="cls-2" d="m49.03,52.61V8.71L40.82.5H4.55v57.14h41.27"/><path class="cls-2" d="m49.03,8.71h-8.21V.5"/><polyline class="cls-3" points="12.38 34.26 17.89 34.26 21.42 26.68 28.69 41.66 32.83 30.54 35.44 34.17 41.92 34.17"/><polyline class="cls-1" points="41.64 45.45 54.24 58.59 50.64 62.04 37.98 48.83"/><path class="cls-1" d="m27,52.31c10.56,0,19.11-8.59,19.11-19.19s-8.56-19.19-19.11-19.19S7.88,22.51,7.88,33.11s8.56,19.19,19.11,19.19Z"/><polyline class="cls-2" points="4.55 4.9 .5 4.9 .5 61.39 43.5 61.39 43.5 58.49"/></g></svg>