<?xml version="1.0" encoding="UTF-8"?><svg id="Layer_2" xmlns="http://www.w3.org/2000/svg" viewBox="0 0 62.82 60.62"><defs><style>.cls-1{fill:#0b2539;}.cls-2{fill:#24e4eb;}.cls-3{stroke-width:.88px;}.cls-3,.cls-4,.cls-5{fill:none;stroke:#0b2539;stroke-miterlimit:10;}.cls-4{stroke-width:1.01px;}.cls-5{stroke-width:.93px;}</style></defs><g id="Blue_Icons_-_Dark"><path class="cls-5" d="m18.59,42.32c4.48,0,7.99-5.56,7.99-12.65,0-8.9-5.59-9.86-7.99-9.86s-7.99.96-7.99,9.86c0,7.1,3.51,12.65,7.99,12.65Z"/><path class="cls-5" d="m7.28,55.09v4.35c0,.4-.32.71-.71.71H1.18c-.39,0-.71-.32-.71-.71v-6.41s0-.05,0-.08c.14-1.21.5-3.19.9-3.83.6-.96,1.36-1.13,3.16-1.47,1.29-.24,2.31-.82,3.15-1.35,1.79-1.14,2.95-2.35,3.54-3.68"/><path class="cls-5" d="m32,60.16H6.69"/><path class="cls-5" d="m25.95,42.62c.59,1.33,1.75,2.53,3.54,3.68.88.56,1.89,1.12,3.34,1.39,1.59.3,2.38.48,2.98,1.44.39.63.76,2.62.9,3.83,0,.03,0,.05,0,.08v6.41c0,.4-.32.71-.71.71h-4.35c-.39,0-1.75-.32-1.75-.71v-4.35"/><path class="cls-4" d="m50.01,4.56h-.73s-25.32-.01-25.32-.01c-2.04,0-3.7,1.9-3.7,4.23v9.8"/><path class="cls-3" d="m27.35,32.63h6.53c.39,0,.71.29.71.64v9.72c0,.53.35,1,.9,1.21.18.07.36.1.56.1.39,0,.76-.14,1.03-.38l12.42-11.1c.13-.12.32-.19.5-.19h8.73c2.01,0,3.64-1.46,3.64-3.25V8.41c0-1.79-1.63-3.25-3.64-3.25"/><path class="cls-2" d="m56.88,6.28c-.57,0-1.03-.46-1.03-1.03v-3.18h-2.85c-.57,0-1.03-.46-1.03-1.03s.46-1.03,1.03-1.03h3.89c.57,0,1.03.46,1.03,1.03v4.22c0,.57-.46,1.03-1.03,1.03Z"/><path class="cls-2" d="m26.56,19.93c-.32,0-.63-.16-.82-.44-.29-.45-.16-1.05.29-1.35l11.06-7.2c.38-.25.88-.2,1.21.12l2.37,2.33,13.99-11.34c.42-.34,1.03-.27,1.37.14.34.42.27,1.03-.14,1.37l-14.66,11.89c-.38.31-.94.29-1.29-.06l-2.44-2.39-10.4,6.77c-.16.11-.35.16-.53.16Z"/><path class="cls-1" d="m32.15,29.46h-2.56c-.29,0-.52-.23-.52-.52v-7.86c0-.29.23-.52.52-.52h2.56c.29,0,.52.23.52.52v7.86c0,.29-.23.52-.52.52Zm-2.04-1.03h1.53v-6.82h-1.53v6.82Z"/><path class="cls-1" d="m37.35,29.38h-2.56c-.29,0-.52-.23-.52-.52v-10.86c0-.29.23-.52.52-.52h2.56c.29,0,.52.23.52.52v10.86c0,.29-.23.52-.52.52Zm-2.04-1.03h1.53v-9.82h-1.53v9.82Z"/><path class="cls-1" d="m42.59,29.38h-2.56c-.29,0-.52-.23-.52-.52v-9.04c0-.29.23-.52.52-.52h2.56c.29,0,.52.23.52.52v9.04c0,.29-.23.52-.52.52Zm-2.04-1.03h1.53v-8.01h-1.53v8.01Z"/><path class="cls-1" d="m47.8,29.38h-2.56c-.29,0-.52-.23-.52-.52v-13.81c0-.29.23-.52.52-.52h2.56c.29,0,.52.23.52.52v13.81c0,.29-.23.52-.52.52Zm-2.04-1.03h1.53v-12.78h-1.53v12.78Z"/><path class="cls-1" d="m53.38,29.42h-2.56c-.29,0-.52-.23-.52-.52V11.49c0-.29.23-.52.52-.52h2.56c.29,0,.52.23.52.52v17.41c0,.29-.23.52-.52.52Zm-2.04-1.03h1.53V12.01h-1.53v16.37Z"/></g></svg>