<?xml version="1.0" encoding="UTF-8"?><svg id="Layer_2" xmlns="http://www.w3.org/2000/svg" viewBox="0 0 63.77 58.8"><defs><style>.cls-1,.cls-2{stroke:#0b2437;}.cls-1,.cls-2,.cls-3{fill:none;stroke-linejoin:round;}.cls-1,.cls-3{stroke-linecap:round;}.cls-3{stroke:#6de0e8;stroke-width:2px;}</style></defs><g id="Labels"><path class="cls-1" d="m41.64,37.49c0-4.75-9.69-7.16-14.85-7.16s-14.85,2.41-14.85,7.16v10.65"/><path class="cls-1" d="m26.79,25.86c3.44,0,5.94-2.42,5.94-5.94v-2.97c0-3.52-2.5-5.94-5.94-5.94s-5.94,2.42-5.94,5.94v2.97c0,3.52,2.5,5.94,5.94,5.94Z"/><path class="cls-1" d="m34.36,51.3v-12.05"/><path class="cls-1" d="m19.22,38.78v12.39"/><path class="cls-2" d="m39.35,49.89c-3.73,2.03-8.01,3.19-12.56,3.19-3.01,0-5.9-.51-8.6-1.44"/><path class="cls-2" d="m18.19,51.64C7.89,48.08.5,38.3.5,26.79.5,12.27,12.27.5,26.79.5s26.29,11.77,26.29,26.29c0,2.39-.32,4.7-.91,6.89"/><path class="cls-1" d="m62.46,42.04c.42,1.24.65,2.57.65,3.95,0,6.8-5.51,12.31-12.31,12.31s-12.31-5.51-12.31-12.31,5.51-12.31,12.31-12.31c2.97,0,5.7,1.05,7.83,2.81"/><path class="cls-3" d="m44.83,43.11l6.26,5.42,6.26-6.05,5.42-5.21"/></g></svg>